<mxfile host="app.diagrams.net" modified="2021-03-16T12:43:15.969Z" agent="5.0 (Macintosh; Intel Mac OS X 11_1_0) AppleWebKit/537.36 (KHTML, like Gecko) Chrome/89.0.4389.82 Safari/537.36" etag="fqbnZrTTAvIv_akDWXHn" version="14.4.5" type="github">
  <diagram id="2ORULyKUraoqu3Yf6mNr" name="Page-1">
    <mxGraphModel dx="818" dy="526" grid="1" gridSize="10" guides="1" tooltips="1" connect="1" arrows="1" fold="1" page="1" pageScale="1" pageWidth="1169" pageHeight="1654" math="0" shadow="0">
      <root>
        <mxCell id="0" />
        <mxCell id="1" parent="0" />
        <mxCell id="6zVq_JOS9x9FdNU69iAo-1" value="Customer" style="shape=umlActor;verticalLabelPosition=bottom;verticalAlign=top;html=1;outlineConnect=0;" vertex="1" parent="1">
          <mxGeometry x="90" y="250" width="30" height="60" as="geometry" />
        </mxCell>
        <mxCell id="6zVq_JOS9x9FdNU69iAo-2" value="HTML-server" style="rounded=0;whiteSpace=wrap;html=1;" vertex="1" parent="1">
          <mxGeometry x="220" y="260" width="100" height="50" as="geometry" />
        </mxCell>
        <mxCell id="6zVq_JOS9x9FdNU69iAo-4" value="" style="rounded=0;whiteSpace=wrap;html=1;" vertex="1" parent="1">
          <mxGeometry x="390" y="260" width="100" height="50" as="geometry" />
        </mxCell>
        <mxCell id="6zVq_JOS9x9FdNU69iAo-5" value="" style="rounded=0;whiteSpace=wrap;html=1;" vertex="1" parent="1">
          <mxGeometry x="560" y="260" width="100" height="50" as="geometry" />
        </mxCell>
      </root>
    </mxGraphModel>
  </diagram>
</mxfile>
